<?xml version="1.0" standalone="no"?><!DOCTYPE svg PUBLIC "-//W3C//DTD SVG 1.1//EN" "http://www.w3.org/Graphics/SVG/1.1/DTD/svg11.dtd"><svg t="1498051642674" class="icon" style="" viewBox="0 0 1024 1024" version="1.1" xmlns="http://www.w3.org/2000/svg" p-id="1699" xmlns:xlink="http://www.w3.org/1999/xlink" width="200" height="200"><defs><style type="text/css"></style></defs><path d="M603.664699 621.134583c0-70.046333 108.237143-114.424052 108.237144-276.945543 0-137.245827-88.702228-216.099756-199.411679-216.099757-110.665449 0-199.37791 78.853929-199.37791 216.099757 0 162.52149 108.203374 206.89921 108.203374 276.945543 0 113.439632-244.772796 82.126462-244.772796 192.370309 0 92.628654 93.492324 82.165348 93.492324 82.165348H754.97894c37.657668 0 93.492324-16.621563 93.492324-82.165348 0.005117-110.243847-244.806565-78.930677-244.806565-192.370309z m-91.365894 234.737232l-59.295477-80.864726 39.530318-141.513014h39.520086l39.534411 141.513014-59.289338 80.864726z" fill="#ffffff" p-id="1700"></path></svg>