<?xml version="1.0" standalone="no"?><!DOCTYPE svg PUBLIC "-//W3C//DTD SVG 1.1//EN" "http://www.w3.org/Graphics/SVG/1.1/DTD/svg11.dtd"><svg t="1498050296504" class="icon" style="" viewBox="0 0 1024 1024" version="1.1" xmlns="http://www.w3.org/2000/svg" p-id="2253" xmlns:xlink="http://www.w3.org/1999/xlink" width="200" height="200"><defs><style type="text/css"></style></defs><path d="M64 64v896h896V64H64z m603.7 698H197.1c-8.9 0-15.9-7.6-15.3-16.5 6.8-94.8 72.2-175.2 161.9-208.3-35.8-26.4-59.9-70.8-59.9-122.1 0-83.2 65.3-153.2 147.7-153.2 80.9 0 150.1 70 150.1 153.2 0 51.3-24.9 95.6-66.9 122.1 95.6 33.1 161.3 113.5 168.2 208.3 0.7 8.9-6.3 16.5-15.2 16.5z m159.3 0h-97c-8 0-14.6-6.3-15.1-14.2-5.1-92.1-60.1-173-148.9-215.9 30.3-28.8 48.2-73.1 48.2-116.6 0-12.6-2.7-26.4-5.1-38.3-1.7-8.4 3.8-16.5 12.2-17.9 5.4-0.9 11.1-1.3 17-1.3 70 0 122.1 54.4 122.1 123.6 0 33.4-20.2 76.2-50.5 98.8 72.5 25.4 125.5 90 132.2 165.5 0.9 8.7-6.2 16.3-15.1 16.3z" fill="#45C01A" p-id="2254"></path></svg>