<?xml version="1.0" standalone="no"?><!DOCTYPE svg PUBLIC "-//W3C//DTD SVG 1.1//EN" "http://www.w3.org/Graphics/SVG/1.1/DTD/svg11.dtd"><svg t="1498050133024" class="icon" style="" viewBox="0 0 1024 1024" version="1.1" xmlns="http://www.w3.org/2000/svg" p-id="1543" xmlns:xlink="http://www.w3.org/1999/xlink" width="200" height="200"><defs><style type="text/css"></style></defs><path d="M795.136 696.32h-30.208v45.568h-46.08v30.72h46.08v45.568h30.208v-45.568h46.08v-30.72h-46.08z" fill="#FA9D3B" p-id="1544"></path><path d="M0 0v1024h1024V0H0z m534.016 877.056H205.824c-39.424 0-71.68-24.064-71.68-63.488v-17.408c0-36.352 26.624-68.096 60.928-80.384L340.48 650.24s39.424-12.288 50.176-24.064c7.168-8.192 9.216-34.816 0.512-52.224-9.216-17.408-82.944-113.664-82.944-194.048 0-130.048 85.504-235.52 190.976-235.52 105.472 0 190.976 105.472 190.976 235.52 0 83.968-82.944 176.64-89.6 199.68-6.656 23.04-7.168 40.448 0.512 48.128 11.776 11.776 43.008 23.552 43.008 23.552l33.28 12.8c-27.136 22.016-44.032 55.296-44.032 93.184 0 60.416 44.544 110.08 102.912 118.272 5.12 1.024 9.728 1.024 14.848 1.024h-217.088z m246.272-12.8c-59.392 0-107.008-48.128-107.008-107.008s48.128-107.008 107.008-107.008 107.008 48.128 107.008 107.008-48.128 107.008-107.008 107.008z" fill="#FA9D3B" p-id="1545"></path></svg>