<?xml version="1.0" standalone="no"?><!DOCTYPE svg PUBLIC "-//W3C//DTD SVG 1.1//EN" "http://www.w3.org/Graphics/SVG/1.1/DTD/svg11.dtd"><svg t="1497360430184" class="icon" style="" viewBox="0 0 1024 1024" version="1.1" xmlns="http://www.w3.org/2000/svg" p-id="36871" xmlns:xlink="http://www.w3.org/1999/xlink" width="10" height="10"><defs><style type="text/css"></style></defs><path d="M911.857778 656.668444l11.512889-2.965333c25.365333-6.542222 40.576-32.192 33.969778-57.301333l-1.066667-4.046222c-6.599111-25.109333-32.512-40.163556-57.877333-33.628444l-11.249778 2.901333-2.787556-10.730667 13.525333-3.484444c25.365333-6.535111 40.576-32.184889 33.969778-57.301333l-1.528889-5.824c-6.599111-25.102222-32.512-40.163556-57.877333-33.628444l-13.255111 3.413333-2.752-10.581333 25.607111-6.599111c25.365333-6.535111 40.576-32.184889 33.969778-57.301333l-2.830222-10.773333c-6.599111-25.102222-32.512-40.163556-57.877333-33.628444l-25.329778 6.528-3.605333-13.866667 6.641778-1.713778c25.365333-6.542222 40.568889-32.192 33.962667-57.301333l-1.998222-7.616c-6.599111-25.109333-32.512-40.163556-57.877333-33.628444l-6.364444 1.635556-32.064-123.349333c-7.850667-30.129778-39.168-48.433778-69.603556-40.661333L320.277333 159.900444c-30.442667 7.772444-48.917333 38.784-41.073778 68.913778l10.851556 41.749333c-33.799111 23.985778-73.877333 59.989333-71.082667 85.859556 4.081778 37.717333 0 92.949333 10.88 115.854222 10.887111 22.897778 50.339556 87.559111 24.490667 119.886222-25.848889 32.334222-168.718222 152.220444-176.881778 156.266667-8.163556 4.039111-23.132444 26.944 0 51.185778 23.132444 24.248889 138.787556 114.503111 153.749333 129.322667 14.968889 14.819556 61.233778 36.373333 102.051556-8.078222 24.32-26.481778 67.278222-73.351111 98.040889-106.915556l26.204444 100.8c7.850667 30.129778 39.168 48.433778 69.610667 40.661333l378.794667-94.698667c30.435556-7.772444 48.917333-38.784 41.066667-68.913778L911.857778 656.668444 911.857778 656.668444zM838.570667 750.784l-309.098667 77.269333c-24.832 6.343111-50.396444-8.590222-56.796444-33.173333l-5.233778-20.373333 0 0-55.395556-215.736889-35.662222-138.915556 105.194667 0c0 0 91.157333-4.145778 62.584889-52.636444-24.768-42.040889-149.717333-110.378667-199.395556-119.943111 5.959111-10.965333 16.32-19.548444 29.383111-22.883556l309.098667-77.276444c24.839111-6.343111 50.396444 8.590222 56.796444 33.180444l15.552 60.572444-58.567111 15.096889c-25.365333 6.535111-40.568889 32.184889-33.962667 57.301333l1.998222 7.616c6.599111 25.109333 32.512 40.170667 57.877333 33.628444l58.005333-14.947556 3.562667 13.873778L703.992889 374.186667c-25.365333 6.542222-40.568889 32.192-33.962667 57.301333l2.830222 10.766222c6.599111 25.109333 32.512 40.163556 57.877333 33.628444l79.921778-20.593778 2.716444 10.588444-51.000889 13.148444c-25.365333 6.542222-40.568889 32.192-33.962667 57.301333l1.528889 5.816889c6.599111 25.109333 32.512 40.170667 57.877333 33.628444l50.439111-12.999111 2.759111 10.737778-35.505778 9.152c-25.365333 6.535111-40.576 32.184889-33.969778 57.301333l1.059556 4.046222c6.606222 25.109333 32.512 40.163556 57.877333 33.628444l34.958222-9.009778 6.656 25.912889C878.485333 719.132444 863.409778 744.440889 838.570667 750.784L838.570667 750.784zM838.570667 750.784" fill="#0EADFD" p-id="36872"></path></svg>