<?xml version="1.0" standalone="no"?><!DOCTYPE svg PUBLIC "-//W3C//DTD SVG 1.1//EN" "http://www.w3.org/Graphics/SVG/1.1/DTD/svg11.dtd"><svg t="1497360353650" class="icon" style="" viewBox="0 0 1024 1024" version="1.1" xmlns="http://www.w3.org/2000/svg" p-id="36697" xmlns:xlink="http://www.w3.org/1999/xlink" width="10" height="10"><defs><style type="text/css"></style></defs><path d="M-4044.352 512c0 300.082 243.264 543.346 543.346 543.346s543.346-243.264 543.346-543.346c0-300.082-243.264-543.346-543.346-543.346-300.082 0-543.346 243.264-543.346 543.346z" fill="#0FADFE" p-id="36698"></path><path d="M-1798.449 755.478l-181.731-181.732-85.070 29.14-56.798 16.228-64.912-16.228-51.389-24.341h-64.912l-40.571 29.751-59.504 8.114-37.866-10.818-56.798-24.341-62.567-7.503v203.561l277.999 277.998c211.835-0.613 395.042-122.486 484.116-299.828z" fill="#0FADFE" p-id="36699"></path><path d="M357.369 586.821c89.475 0 82.91-57.287 172.383-57.287 89.536 0 89.536 57.287 179.073 57.287l-6.070-16.432-51.238-152.097c-23.087-68.526-88.885-110.435-157.753-106.418l-66.573-197.622c17.849-9.219 26.88-30.206 20.266-49.833l-2.947-8.75c-7.298-21.66-30.773-33.302-52.432-26.009l-85.143 28.684c-21.662 7.298-33.303 30.773-26.010 52.432l2.947 8.751c6.61 19.625 26.498 30.869 46.289 27.41l66.573 197.622c-57.261 38.471-84.289 111.654-61.204 180.18l18.199 54.023 3.639 8.054z" fill="#0FADFE" p-id="36700"></path><path d="M708.828 953.115c-49.91 0-76.010-16.699-99.030-31.423-21.695-13.876-40.432-25.869-80.053-25.869-39.573 0-58.289 11.981-79.969 25.857-23.004 14.734-49.085 31.435-98.979 31.435-49.91 0-75.994-16.699-98.997-31.423-21.678-13.885-40.413-25.869-80.004-25.869-9.738 0-17.617-7.888-17.617-17.617s7.879-17.618 17.617-17.618c49.913 0 75.996 16.699 98.997 31.423 21.679 13.885 40.414 25.869 80.004 25.869 39.589 0 58.307-11.981 79.986-25.869 23.005-14.726 49.068-31.423 98.962-31.423 49.93 0 76.028 16.699 99.049 31.423 21.694 13.885 40.431 25.869 80.037 25.869 39.607 0 58.345-11.994 80.038-25.869 23.019-14.726 49.104-31.423 99.030-31.423 9.738 0 17.618 7.888 17.618 17.618s-7.881 17.617-17.618 17.617c-39.606 0-58.343 11.994-80.037 25.869-23.024 14.727-49.105 31.425-99.033 31.425zM708.828 821.351c-49.91 0-76.010-16.688-99.030-31.418-21.695-13.885-40.432-25.869-80.053-25.869-39.573 0-58.289 11.981-79.969 25.857-23.004 14.726-49.085 31.423-98.979 31.423-49.91 0-75.994-16.688-98.997-31.423-21.678-13.876-40.413-25.857-80.004-25.857-9.738 0-17.617-7.888-17.617-17.617s7.879-17.617 17.617-17.617c49.913 0 75.996 16.688 98.997 31.422 21.679 13.876 40.414 25.857 80.004 25.857 39.589 0 58.307-11.981 79.986-25.869 23.005-14.726 49.068-31.417 98.962-31.417 49.93 0 76.028 16.688 99.049 31.422 21.694 13.876 40.431 25.857 80.037 25.857 39.607 0 58.345-11.981 80.038-25.869 23.019-14.726 49.104-31.417 99.030-31.417 9.738 0 17.618 7.888 17.618 17.617s-7.881 17.617-17.618 17.617c-39.606 0-58.343 11.981-80.037 25.869-23.024 14.732-49.105 31.42-99.033 31.42zM708.828 689.588c-49.91 0-76.010-16.688-99.030-31.418-21.695-13.883-40.432-25.869-80.053-25.869-39.573 0-58.289 11.984-79.969 25.857-23.004 14.727-49.085 31.423-98.979 31.423-49.91 0-75.994-16.688-98.997-31.423-21.678-13.875-40.413-25.857-80.004-25.857-9.738 0-17.617-7.888-17.617-17.617s7.879-17.617 17.617-17.617c49.913 0 75.996 16.688 98.997 31.422 21.679 13.876 40.414 25.857 80.004 25.857 39.589 0 58.307-11.981 79.986-25.869 23.005-14.726 49.068-31.417 98.962-31.417 49.93 0 76.028 16.688 99.049 31.422 21.694 13.876 40.431 25.857 80.037 25.857 39.607 0 58.345-11.981 80.038-25.869 23.019-14.726 49.104-31.417 99.030-31.417 9.738 0 17.618 7.888 17.618 17.617s-7.881 17.617-17.618 17.617c-39.606 0-58.343 11.984-80.037 25.869-23.024 14.732-49.105 31.42-99.033 31.42z" fill="#0FADFE" p-id="36701"></path><path d="M-411.168 517.15c-2.959-0.002-5.476-1.889-6.418-4.525-1.236-3.595 0.637-7.476 4.186-8.705l178.023-61.866c3.549-1.236 7.417 0.637 8.666 4.192 1.222 3.549-0.652 7.429-4.201 8.659l-178.023 61.866c-0.662 0.24-1.427 0.379-2.224 0.379-0.002 0-0.005 0-0.007 0z" fill="#0FADFE" p-id="36702"></path><path d="M-1034.576 425.287c-0.006 0-0.016 0-0.022 0-4.138 0-7.843-1.856-10.326-4.78-11.232-13.216-28.284-20.579-45.522-19.469-7.681 0.372-13.941-5.291-14.381-12.799-0.438-7.503 5.291-13.942 12.785-14.381 25.942-1.47 51.129 9.342 67.834 29.006 4.878 5.728 4.174 14.314-1.554 19.185-2.349 2.013-5.424 3.237-8.786 3.237-0.007 0-0.018 0-0.027 0z" fill="#0FADFE" p-id="36703"></path></svg>