<?xml version="1.0" standalone="no"?><!DOCTYPE svg PUBLIC "-//W3C//DTD SVG 1.1//EN" "http://www.w3.org/Graphics/SVG/1.1/DTD/svg11.dtd"><svg t="1497360300043" class="icon" style="" viewBox="0 0 1024 1024" version="1.1" xmlns="http://www.w3.org/2000/svg" p-id="36527" xmlns:xlink="http://www.w3.org/1999/xlink" width="10" height="10"><defs><style type="text/css"></style></defs><path d="M511.998465 2.161223c-281.585213 0-509.837754 228.273007-509.837754 509.837754 0 281.56577 228.252541 509.839801 509.837754 509.8398 281.566794 0 509.839801-228.273007 509.839801-509.8398-0.001023-281.564747-228.273007-509.837754-509.839801-509.837754z" fill="#F66064" p-id="36528" class=""></path><path d="M654.753773 277.474592c-33.796734 0-61.180408 27.381627-61.180408 61.180408l-0.008186 7.65433c-0.127913 6.907317 0.008186 5.548366 0.008186 12.737093v203.936738c0 33.796734-47.77612 61.180408-81.5749 61.180408-33.795711 0-81.572854-27.383674-81.572854-61.180408V359.046423c0-7.188726-0.019443-8.791224-0.034792-15.807011l0.034792-4.585435c0-33.797757-27.38572-61.180408-61.180407-61.180408-33.797757 0-61.179384 27.381627-61.179385 61.180408v224.328161c0 101.371782 102.563934 183.54327 203.932646 183.54327 101.371782 0 203.934692-82.172511 203.934692-183.54327V338.653977c0-33.797757-27.381627-61.179384-61.179384-61.179385z m-305.903062 40.785915h40.785915v40.784892h-40.785915v-40.784892z m326.296531 244.721631c0 78.844719-84.300988 142.755308-163.148777 142.755308-78.845743 0-163.147754-63.910589-163.147754-142.755308V396.090107c6.415107 2.269693 13.204743 3.745301 20.394493 3.745301s13.980409-1.474584 20.392446-3.745301v166.893054c0 56.32175 66.040089 101.967346 122.360815 101.967347s122.362862-45.644573 122.362862-101.967347V396.090107c6.412037 2.269693 13.202697 3.745301 20.392446 3.745301s13.979386-1.474584 20.393469-3.745301v166.892031z m0-203.935715H634.361327V318.261531h40.784892v40.784892z" fill="#FFFFFF" p-id="36529"></path></svg>