<?xml version="1.0" standalone="no"?><!DOCTYPE svg PUBLIC "-//W3C//DTD SVG 1.1//EN" "http://www.w3.org/Graphics/SVG/1.1/DTD/svg11.dtd"><svg t="1497360682157" class="icon" style="" viewBox="0 0 1024 1024" version="1.1" xmlns="http://www.w3.org/2000/svg" p-id="37718" xmlns:xlink="http://www.w3.org/1999/xlink" width="10" height="10"><defs><style type="text/css"></style></defs><path d="M512.611937 100.812033c-15.71082 0-31.142278 0.948605-46.324048 2.735298-37.20639 4.208858-72.869634 13.503549-106.395192 27.001981 0 0 276.437983 273.566586 283.798624 283.736202V122.55422c-8.239662-2.803859-16.654308-5.328355-25.140586-7.679913-33.766035-9.084912-69.292156-14.062274-105.938798-14.062274z" fill="#F95452" p-id="37719"></path><path d="M801.360294 219.657792c-11.081383-11.081383-22.690792-21.324678-34.681894-30.824029-29.315676-23.287379-61.08831-42.010813-94.299713-56.109926 0 0 2.034333 388.794957 0 401.210731l206.343555-206.303646a419.273109 419.273109 0 0 0-12.416797-23.146163c-17.499559-30.29805-39.027875-58.9496-64.945151-84.826967z" fill="#6467F0" p-id="37720"></path><path d="M891.937219 360.000144s-273.488815 276.404214-283.730063 283.765879H899.971196c2.803859-8.238638 5.332449-16.656355 7.643074-25.142634 9.115612-33.840736 14.100136-69.258387 14.100136-105.938797 0-15.678074-0.983397-31.142278-2.775207-46.325072-4.206812-37.207413-13.461593-72.869634-27.00198-106.359376z" fill="#5283F0" p-id="37721"></path><path d="M486.204497 674.485675l206.337416 206.304669a407.935899 407.935899 0 0 0 23.180955-12.412704c30.300097-17.432021 58.915831-38.995129 84.866876-64.945151 11.042497-11.047614 21.251-22.691815 30.788214-34.681894 23.24747-29.321816 42.013883-61.055564 56.107879-94.301759 0.001023 0.001023-388.828726 2.038426-401.28134 0.036839z" fill="#00B1FE" p-id="37722"></path><path d="M380.336308 609.680716V901.443733a418.766572 418.766572 0 0 0 25.143657 7.648191c33.806967 9.117658 69.261457 14.09502 105.944937 14.095019 15.636119 0 31.101345-0.982374 46.251393-2.735297a406.863475 406.863475 0 0 0 106.395193-27.03882c0.033769 0.001023-276.372491-273.489838-283.73518-283.73211z" fill="#65D020" p-id="37723"></path><path d="M351.298971 487.99426L145.030118 694.296883c3.860934 7.892761 8.035 15.608489 12.416797 23.180955 17.430998 30.368658 38.994106 58.983369 64.946174 84.900645 11.04659 11.082406 22.689768 21.286816 34.681894 30.790261 29.349445 23.322172 61.018725 42.011836 94.334505 56.105832-0.001023 0-2.106987-388.829749-0.110517-401.280316z" fill="#9AD122" p-id="37724"></path><path d="M116.345822 405.550573c-9.082866 33.806967-14.060227 69.261457-14.060228 105.943914 0 15.637142 0.982374 31.136138 2.769067 46.288232 4.209882 37.241182 13.430894 72.90545 27.037796 106.359377 0 0 273.461185-276.404214 283.700387-283.734157H123.991965c-2.804882 8.203846-5.330402 16.655332-7.646143 25.142634z" fill="#FFC817" p-id="37725"></path><path d="M306.309314 157.200298c-30.367635 17.463744-58.984393 39.032992-84.865853 64.910359-11.150968 11.118222-21.319561 22.760376-30.823006 34.681894-23.287379 29.320793-42.011836 61.089333-56.141648 94.368274 0 0 388.898311-2.069125 401.316132-0.068562L329.4872 144.788617c-7.851828 3.925403-15.604396 8.029884-23.177886 12.411681z" fill="#FF7612" p-id="37726"></path></svg>