<?xml version="1.0" standalone="no"?><!DOCTYPE svg PUBLIC "-//W3C//DTD SVG 1.1//EN" "http://www.w3.org/Graphics/SVG/1.1/DTD/svg11.dtd"><svg t="1497360252828" class="icon" style="" viewBox="0 0 1024 1024" version="1.1" xmlns="http://www.w3.org/2000/svg" p-id="36185" xmlns:xlink="http://www.w3.org/1999/xlink" width="10" height="10"><defs><style type="text/css"></style></defs><path d="M901.878638 549.462217 702.065823 549.462217c-10.923794 0-20.484543 7.099698-23.911596 17.47193-17.327644 52.438303-58.780755 93.892437-111.219057 111.220081-10.372232 3.427052-17.47193 12.988826-17.47193 23.911596l0 199.813838c0 22.545482 27.258831 33.836643 43.200918 17.894555l327.110059-327.110059C935.715281 576.721047 924.425144 549.462217 901.878638 549.462217z" fill="#1afa29" p-id="36186"></path><path d="M566.934147 345.845773c52.438303 17.327644 93.892437 58.780755 111.219057 111.220081 3.427052 10.372232 12.988826 17.47193 23.911596 17.47193l199.813838 0c22.545482 0 33.836643-27.258831 17.894555-43.200918l-327.110059-327.110059c-15.942087-15.942087-43.200918-4.650927-43.200918 17.894555l0 199.813838C549.462217 332.85797 556.561915 342.41872 566.934147 345.845773z" fill="#1296db" p-id="36187"></path><path d="M457.066 678.153c-52.438-17.328-93.892-58.781-111.22-111.22-3.427-10.372-12.989-17.472-23.912-17.472h-199.814c-22.545 0-33.837 27.259-17.895 43.201l327.11 327.11c15.942 15.942 43.201 4.651 43.201-17.895v-199.812c0.001-10.924-7.099-20.486-17.471-23.913z" fill="#e16531" p-id="36188"></path><path d="M431.336866 104.225783l-327.110059 327.110059c-15.942087 15.942087-4.650927 43.200918 17.894555 43.200918l199.813838 0c10.923794 0 20.484543-7.099698 23.911596-17.47193 17.327644-52.438303 58.780755-93.892437 111.219057-111.220081 10.372232-3.427052 17.47193-12.988826 17.47193-23.911596L474.537783 122.120338C474.537783 99.574856 447.278953 88.283696 431.336866 104.225783z" fill="#efb336" p-id="36189"></path></svg>