<?xml version="1.0" standalone="no"?><!DOCTYPE svg PUBLIC "-//W3C//DTD SVG 1.1//EN" "http://www.w3.org/Graphics/SVG/1.1/DTD/svg11.dtd"><svg t="1497449634484" class="icon" style="" viewBox="0 0 1024 1024" version="1.1" xmlns="http://www.w3.org/2000/svg" p-id="2005" xmlns:xlink="http://www.w3.org/1999/xlink" width="64" height="64"><defs><style type="text/css"></style></defs><path d="M365.248681 553.906435c-27.971052 13.960966-200.196555 85.828784-81.059153 201.264887 64.684208 64.575738 173.052335 23.76424 199.210087-38.509059 3.496637-43.63173 3.430122-360.64278 3.430122-404.276557 0-43.630706 129.766482-276.804327 366.501209-144.373155 0 0 266.370697 155.346067-42.276873 406.019247 0 0-105.530498 8.500605-81.05506-80.509638-3.496637-26.179242 128.576377-86.890976 111.092167-170.667008-27.970028-99.481735-190.558034-128.524189-232.680387-3.491521v395.549802c1.684362 55.5512-108.299565 237.860363-336.007706 161.010067 0 0-152.011112-64.837704-143.594419-228.124628 6.733355-74.068949 76.769454-164.741042 155.37779-194.524368 87.414909-24.430412 119.522164 62.234413 81.062223 100.631931z" fill="#7886D7" p-id="2006"></path></svg>