<?xml version="1.0" standalone="no"?><!DOCTYPE svg PUBLIC "-//W3C//DTD SVG 1.1//EN" "http://www.w3.org/Graphics/SVG/1.1/DTD/svg11.dtd"><svg t="1497360474054" class="icon" style="" viewBox="0 0 1024 1024" version="1.1" xmlns="http://www.w3.org/2000/svg" p-id="37164" xmlns:xlink="http://www.w3.org/1999/xlink" width="10" height="10"><defs><style type="text/css"></style></defs><path d="M65.18307 216.824257c0 0-22.681582-149.579737 192.772468-153.814178C473.415728 58.775638 496.092193 245.039879 496.092193 245.039879l181.439352 0c0 0 42.517349 8.468882 41.104163 59.269895-1.417279 50.801013-35.438117 49.384757-35.438117 49.384757l-423.823751 0.010233c0 0-51.02614-1.417279-52.443419 57.847499-1.418302 59.269895 9.93528 148.144038-60.951187 148.168598-48.198745 0.020466-49.610908-57.863872-49.610908-57.863872L65.18307 216.824257 65.18307 216.824257zM65.18307 216.824257" fill="#0EADFD" p-id="37165"></path><path d="M958.954053 802.390763c0 0 22.679535 149.584853-192.774515 153.814178-215.46019 4.235464-238.136655-182.028776-238.136655-182.028776L346.603531 774.176165c0 0-42.522466-8.468882-41.10314-59.269895 1.416256-50.797943 35.437094-49.39499 35.437094-49.39499l423.819658 0c0 0 51.024094 1.415232 52.448536-57.854663 1.418302-59.264778-9.936303-148.135852 60.951187-148.162458 48.189535-0.013303 49.611931 57.854663 49.611931 57.854663L958.954053 802.390763 958.954053 802.390763zM958.954053 802.390763" fill="#0EADFD" p-id="37166"></path></svg>